# MagicaVoxel @ Ephtracy

# group
o 

# material
mtllib spaceman.mtl
usemtl palette

# normals
vn -1 0 0
vn 1 0 0
vn 0 0 1
vn 0 0 -1
vn 0 -1 0
vn 0 1 0

# texcoords
vt 0.775391 0.5
vt 0.962891 0.5
vt 0.990234 0.5
vt 0.994141 0.5

# verts
v 1.2 2.7 -0.9
v 1.2 2.7 -1.2
v 1.2 2.7 -1.9
v 1.2 3 -0.9
v 1.2 3 -1.2
v 1.2 3 -1.6
v 1.2 3.4 -1.6
v 1.2 3.4 -1.9
v 1.3 3.5 -0.8
v 1.3 3.5 -2.2
v 1.3 3.7 -0.8
v 1.3 3.7 -1.8
v 1.3 3.7 -2
v 1.3 4.6 -0.8
v 1.3 4.6 -1.8
v 1.3 4.6 -2
v 1.3 4.8 -0.8
v 1.3 4.8 -2.2
v 1.4 2.8 -2.1
v 1.4 2.8 -2.7
v 1.4 3.5 -2.1
v 1.4 3.5 -2.2
v 1.4 4.2 -2.2
v 1.4 4.2 -2.7
v 1.5 2.5 -1
v 1.5 2.5 -2.1
v 1.5 2.7 -1
v 1.5 2.7 -1.2
v 1.5 2.7 -1.9
v 1.5 2.8 -2.1
v 1.5 3 -1
v 1.5 3 -1.2
v 1.5 3 -1.6
v 1.5 3.4 -1.6
v 1.5 3.4 -1.9
v 1.5 3.5 -1
v 1.5 3.5 -2.1
v 1.6 2 -1.2
v 1.6 2 -1.7
v 1.6 2.2 -1.2
v 1.6 2.2 -1.4
v 1.6 2.2 -1.7
v 1.6 2.5 -1.4
v 1.6 2.5 -1.7
v 1.6 4.2 -2.4
v 1.6 4.2 -2.5
v 1.6 5 -2.4
v 1.6 5 -2.5
v 2.1 2 -1.2
v 2.1 2 -1.7
v 2.1 2.2 -1.2
v 2.1 2.2 -1.4
v 2.1 2.2 -1.7
v 2.1 2.5 -1.4
v 2.1 2.5 -1.7
v 2.3 4.2 -2.4
v 2.3 4.2 -2.5
v 2.3 5.2 -2.4
v 2.3 5.2 -2.5
v 2.5 2.7 -0.9
v 2.5 2.7 -1
v 2.5 3 -0.9
v 2.5 3 -1
v 1.5 2.7 -0.9
v 1.5 2.7 -1
v 1.5 3 -0.9
v 1.5 3 -1
v 1.7 4.2 -2.4
v 1.7 4.2 -2.5
v 1.7 5 -2.4
v 1.7 5 -2.5
v 1.9 2 -1.2
v 1.9 2 -1.7
v 1.9 2.2 -1.2
v 1.9 2.2 -1.4
v 1.9 2.2 -1.7
v 1.9 2.5 -1.4
v 1.9 2.5 -1.7
v 2.4 2 -1.2
v 2.4 2 -1.7
v 2.4 2.2 -1.2
v 2.4 2.2 -1.4
v 2.4 2.2 -1.7
v 2.4 2.5 -1.4
v 2.4 2.5 -1.7
v 2.4 4.2 -2.4
v 2.4 4.2 -2.5
v 2.4 5.2 -2.4
v 2.4 5.2 -2.5
v 2.5 2.5 -1
v 2.5 2.5 -2.1
v 2.5 2.7 -1
v 2.5 2.7 -1.2
v 2.5 2.7 -1.9
v 2.5 2.8 -2.1
v 2.5 3 -1
v 2.5 3 -1.2
v 2.5 3 -1.6
v 2.5 3.4 -1.6
v 2.5 3.4 -1.9
v 2.5 3.5 -1
v 2.5 3.5 -2.1
v 2.6 2.8 -2.1
v 2.6 2.8 -2.7
v 2.6 3.5 -2.1
v 2.6 3.5 -2.2
v 2.6 4.2 -2.2
v 2.6 4.2 -2.7
v 2.7 3.5 -0.8
v 2.7 3.5 -2.2
v 2.7 3.7 -0.8
v 2.7 3.7 -1.8
v 2.7 3.7 -2
v 2.7 4.6 -0.8
v 2.7 4.6 -1.8
v 2.7 4.6 -2
v 2.7 4.8 -0.8
v 2.7 4.8 -2.2
v 2.8 2.7 -0.9
v 2.8 2.7 -1.2
v 2.8 2.7 -1.9
v 2.8 3 -0.9
v 2.8 3 -1.2
v 2.8 3 -1.6
v 2.8 3.4 -1.6
v 2.8 3.4 -1.9
v 1.3 3.5 -0.8
v 1.3 3.7 -0.8
v 1.3 4.6 -0.8
v 1.3 4.8 -0.8
v 2.7 3.5 -0.8
v 2.7 3.7 -0.8
v 2.7 4.6 -0.8
v 2.7 4.8 -0.8
v 1.2 2.7 -0.9
v 1.2 3 -0.9
v 1.5 2.7 -0.9
v 1.5 3 -0.9
v 2.5 2.7 -0.9
v 2.5 3 -0.9
v 2.8 2.7 -0.9
v 2.8 3 -0.9
v 1.5 2.5 -1
v 1.5 2.7 -1
v 1.5 3 -1
v 1.5 3.5 -1
v 2.5 2.5 -1
v 2.5 2.7 -1
v 2.5 3 -1
v 2.5 3.5 -1
v 1.6 2 -1.2
v 1.6 2.2 -1.2
v 1.9 2 -1.2
v 1.9 2.2 -1.2
v 2.1 2 -1.2
v 2.1 2.2 -1.2
v 2.4 2 -1.2
v 2.4 2.2 -1.2
v 1.6 2.2 -1.4
v 1.6 2.5 -1.4
v 1.9 2.2 -1.4
v 1.9 2.5 -1.4
v 2.1 2.2 -1.4
v 2.1 2.5 -1.4
v 2.4 2.2 -1.4
v 2.4 2.5 -1.4
v 1.2 3 -1.6
v 1.2 3.4 -1.6
v 1.5 3 -1.6
v 1.5 3.4 -1.6
v 2.5 3 -1.6
v 2.5 3.4 -1.6
v 2.8 3 -1.6
v 2.8 3.4 -1.6
v 1.4 2.8 -2.1
v 1.4 3.5 -2.1
v 1.5 2.8 -2.1
v 1.5 3.5 -2.1
v 2.5 2.8 -2.1
v 2.5 3.5 -2.1
v 2.6 2.8 -2.1
v 2.6 3.5 -2.1
v 1.6 4.2 -2.4
v 1.6 5 -2.4
v 1.7 4.2 -2.4
v 1.7 5 -2.4
v 2.3 4.2 -2.4
v 2.3 5.2 -2.4
v 2.4 4.2 -2.4
v 2.4 5.2 -2.4
v 1.6 2 -1.7
v 1.6 2.2 -1.7
v 1.6 2.5 -1.7
v 1.9 2 -1.7
v 1.9 2.2 -1.7
v 1.9 2.5 -1.7
v 2.1 2 -1.7
v 2.1 2.2 -1.7
v 2.1 2.5 -1.7
v 2.4 2 -1.7
v 2.4 2.2 -1.7
v 2.4 2.5 -1.7
v 1.2 2.7 -1.9
v 1.2 3.4 -1.9
v 1.5 2.7 -1.9
v 1.5 3.4 -1.9
v 2.5 2.7 -1.9
v 2.5 3.4 -1.9
v 2.8 2.7 -1.9
v 2.8 3.4 -1.9
v 1.5 2.5 -2.1
v 1.5 2.8 -2.1
v 2.5 2.5 -2.1
v 2.5 2.8 -2.1
v 1.3 3.5 -2.2
v 1.3 4.8 -2.2
v 1.4 3.5 -2.2
v 1.4 4.2 -2.2
v 2.6 3.5 -2.2
v 2.6 4.2 -2.2
v 2.7 3.5 -2.2
v 2.7 4.8 -2.2
v 1.6 4.2 -2.5
v 1.6 5 -2.5
v 1.7 4.2 -2.5
v 1.7 5 -2.5
v 2.3 4.2 -2.5
v 2.3 5.2 -2.5
v 2.4 4.2 -2.5
v 2.4 5.2 -2.5
v 1.4 2.8 -2.7
v 1.4 4.2 -2.7
v 2.6 2.8 -2.7
v 2.6 4.2 -2.7
v 1.6 2 -1.2
v 1.9 2 -1.2
v 2.1 2 -1.2
v 2.4 2 -1.2
v 1.6 2 -1.7
v 1.9 2 -1.7
v 2.1 2 -1.7
v 2.4 2 -1.7
v 1.5 2.5 -1
v 2.5 2.5 -1
v 1.6 2.5 -1.4
v 1.9 2.5 -1.4
v 2.1 2.5 -1.4
v 2.4 2.5 -1.4
v 1.6 2.5 -1.7
v 1.9 2.5 -1.7
v 2.1 2.5 -1.7
v 2.4 2.5 -1.7
v 1.5 2.5 -2.1
v 2.5 2.5 -2.1
v 1.2 2.7 -0.9
v 1.5 2.7 -0.9
v 2.5 2.7 -0.9
v 2.8 2.7 -0.9
v 1.5 2.7 -1
v 2.5 2.7 -1
v 1.2 2.7 -1.2
v 1.5 2.7 -1.2
v 2.5 2.7 -1.2
v 2.8 2.7 -1.2
v 1.2 2.7 -1.9
v 1.5 2.7 -1.9
v 2.5 2.7 -1.9
v 2.8 2.7 -1.9
v 1.4 2.8 -2.1
v 1.5 2.8 -2.1
v 2.5 2.8 -2.1
v 2.6 2.8 -2.1
v 1.4 2.8 -2.7
v 2.6 2.8 -2.7
v 1.3 3.5 -0.8
v 2.7 3.5 -0.8
v 1.5 3.5 -1
v 2.5 3.5 -1
v 1.4 3.5 -2.1
v 1.5 3.5 -2.1
v 2.5 3.5 -2.1
v 2.6 3.5 -2.1
v 1.3 3.5 -2.2
v 1.4 3.5 -2.2
v 2.6 3.5 -2.2
v 2.7 3.5 -2.2
v 1.6 2.2 -1.2
v 1.9 2.2 -1.2
v 2.1 2.2 -1.2
v 2.4 2.2 -1.2
v 1.6 2.2 -1.4
v 1.9 2.2 -1.4
v 2.1 2.2 -1.4
v 2.4 2.2 -1.4
v 1.2 3 -0.9
v 1.5 3 -0.9
v 2.5 3 -0.9
v 2.8 3 -0.9
v 1.5 3 -1
v 2.5 3 -1
v 1.2 3 -1.2
v 1.5 3 -1.2
v 2.5 3 -1.2
v 2.8 3 -1.2
v 1.2 3 -1.6
v 1.5 3 -1.6
v 2.5 3 -1.6
v 2.8 3 -1.6
v 1.2 3.4 -1.6
v 1.5 3.4 -1.6
v 2.5 3.4 -1.6
v 2.8 3.4 -1.6
v 1.2 3.4 -1.9
v 1.5 3.4 -1.9
v 2.5 3.4 -1.9
v 2.8 3.4 -1.9
v 1.4 4.2 -2.2
v 2.6 4.2 -2.2
v 1.6 4.2 -2.4
v 1.7 4.2 -2.4
v 2.3 4.2 -2.4
v 2.4 4.2 -2.4
v 1.6 4.2 -2.5
v 1.7 4.2 -2.5
v 2.3 4.2 -2.5
v 2.4 4.2 -2.5
v 1.4 4.2 -2.7
v 2.6 4.2 -2.7
v 1.3 4.8 -0.8
v 2.7 4.8 -0.8
v 1.3 4.8 -2.2
v 2.7 4.8 -2.2
v 1.6 5 -2.4
v 1.7 5 -2.4
v 1.6 5 -2.5
v 1.7 5 -2.5
v 2.3 5.2 -2.4
v 2.4 5.2 -2.4
v 2.3 5.2 -2.5
v 2.4 5.2 -2.5

# faces
f 4/4/1 2/4/1 1/4/1
f 5/2/1 3/2/1 2/2/1
f 5/4/1 2/4/1 4/4/1
f 6/2/1 3/2/1 5/2/1
f 7/2/1 3/2/1 6/2/1
f 8/2/1 3/2/1 7/2/1
f 11/2/1 10/2/1 9/2/1
f 12/2/1 10/2/1 11/2/1
f 13/2/1 10/2/1 12/2/1
f 14/3/1 12/3/1 11/3/1
f 15/1/1 13/1/1 12/1/1
f 15/3/1 12/3/1 14/3/1
f 16/2/1 10/2/1 13/2/1
f 16/1/1 13/1/1 15/1/1
f 17/2/1 15/2/1 14/2/1
f 17/2/1 16/2/1 15/2/1
f 18/2/1 10/2/1 16/2/1
f 18/2/1 16/2/1 17/2/1
f 21/2/1 20/2/1 19/2/1
f 22/2/1 20/2/1 21/2/1
f 23/2/1 20/2/1 22/2/1
f 24/2/1 20/2/1 23/2/1
f 27/2/1 26/2/1 25/2/1
f 28/2/1 26/2/1 27/2/1
f 29/2/1 26/2/1 28/2/1
f 30/2/1 26/2/1 29/2/1
f 34/2/1 32/2/1 31/2/1
f 34/2/1 33/2/1 32/2/1
f 35/2/1 30/2/1 29/2/1
f 36/2/1 34/2/1 31/2/1
f 36/2/1 35/2/1 34/2/1
f 37/2/1 30/2/1 35/2/1
f 37/2/1 35/2/1 36/2/1
f 40/4/1 39/4/1 38/4/1
f 41/4/1 39/4/1 40/4/1
f 42/4/1 39/4/1 41/4/1
f 43/2/1 42/2/1 41/2/1
f 44/2/1 42/2/1 43/2/1
f 47/2/1 46/2/1 45/2/1
f 48/2/1 46/2/1 47/2/1
f 51/4/1 50/4/1 49/4/1
f 52/4/1 50/4/1 51/4/1
f 53/4/1 50/4/1 52/4/1
f 54/2/1 53/2/1 52/2/1
f 55/2/1 53/2/1 54/2/1
f 58/2/1 57/2/1 56/2/1
f 59/2/1 57/2/1 58/2/1
f 62/4/1 61/4/1 60/4/1
f 63/4/1 61/4/1 62/4/1
f 64/4/2 65/4/2 66/4/2
f 66/4/2 65/4/2 67/4/2
f 68/2/2 69/2/2 70/2/2
f 70/2/2 69/2/2 71/2/2
f 72/4/2 73/4/2 74/4/2
f 74/4/2 73/4/2 75/4/2
f 75/4/2 73/4/2 76/4/2
f 75/2/2 76/2/2 77/2/2
f 77/2/2 76/2/2 78/2/2
f 79/4/2 80/4/2 81/4/2
f 81/4/2 80/4/2 82/4/2
f 82/4/2 80/4/2 83/4/2
f 82/2/2 83/2/2 84/2/2
f 84/2/2 83/2/2 85/2/2
f 86/2/2 87/2/2 88/2/2
f 88/2/2 87/2/2 89/2/2
f 90/2/2 91/2/2 92/2/2
f 92/2/2 91/2/2 93/2/2
f 93/2/2 91/2/2 94/2/2
f 94/2/2 91/2/2 95/2/2
f 96/2/2 97/2/2 99/2/2
f 97/2/2 98/2/2 99/2/2
f 94/2/2 95/2/2 100/2/2
f 96/2/2 99/2/2 101/2/2
f 99/2/2 100/2/2 101/2/2
f 100/2/2 95/2/2 102/2/2
f 101/2/2 100/2/2 102/2/2
f 103/2/2 104/2/2 105/2/2
f 105/2/2 104/2/2 106/2/2
f 106/2/2 104/2/2 107/2/2
f 107/2/2 104/2/2 108/2/2
f 109/2/2 110/2/2 111/2/2
f 111/2/2 110/2/2 112/2/2
f 112/2/2 110/2/2 113/2/2
f 111/3/2 112/3/2 114/3/2
f 112/1/2 113/1/2 115/1/2
f 114/3/2 112/3/2 115/3/2
f 113/2/2 110/2/2 116/2/2
f 115/1/2 113/1/2 116/1/2
f 114/2/2 115/2/2 117/2/2
f 115/2/2 116/2/2 117/2/2
f 116/2/2 110/2/2 118/2/2
f 117/2/2 116/2/2 118/2/2
f 119/4/2 120/4/2 122/4/2
f 120/2/2 121/2/2 123/2/2
f 122/4/2 120/4/2 123/4/2
f 123/2/2 121/2/2 124/2/2
f 124/2/2 121/2/2 125/2/2
f 125/2/2 121/2/2 126/2/2
f 131/2/3 128/2/3 127/2/3
f 132/3/3 129/3/3 128/3/3
f 132/2/3 128/2/3 131/2/3
f 133/2/3 130/2/3 129/2/3
f 133/3/3 129/3/3 132/3/3
f 134/2/3 130/2/3 133/2/3
f 137/4/3 136/4/3 135/4/3
f 138/4/3 136/4/3 137/4/3
f 141/4/3 140/4/3 139/4/3
f 142/4/3 140/4/3 141/4/3
f 147/2/3 144/2/3 143/2/3
f 147/2/3 146/2/3 145/2/3
f 147/2/3 145/2/3 144/2/3
f 148/2/3 146/2/3 147/2/3
f 149/2/3 146/2/3 148/2/3
f 150/2/3 146/2/3 149/2/3
f 153/4/3 152/4/3 151/4/3
f 154/4/3 152/4/3 153/4/3
f 157/4/3 156/4/3 155/4/3
f 158/4/3 156/4/3 157/4/3
f 161/2/3 160/2/3 159/2/3
f 162/2/3 160/2/3 161/2/3
f 165/2/3 164/2/3 163/2/3
f 166/2/3 164/2/3 165/2/3
f 169/2/3 168/2/3 167/2/3
f 170/2/3 168/2/3 169/2/3
f 173/2/3 172/2/3 171/2/3
f 174/2/3 172/2/3 173/2/3
f 177/2/3 176/2/3 175/2/3
f 178/2/3 176/2/3 177/2/3
f 181/2/3 180/2/3 179/2/3
f 182/2/3 180/2/3 181/2/3
f 185/2/3 184/2/3 183/2/3
f 186/2/3 184/2/3 185/2/3
f 189/2/3 188/2/3 187/2/3
f 190/2/3 188/2/3 189/2/3
f 191/4/4 192/4/4 194/4/4
f 192/2/4 193/2/4 195/2/4
f 194/4/4 192/4/4 195/4/4
f 195/2/4 193/2/4 196/2/4
f 197/4/4 198/4/4 200/4/4
f 198/2/4 199/2/4 201/2/4
f 200/4/4 198/4/4 201/4/4
f 201/2/4 199/2/4 202/2/4
f 203/2/4 204/2/4 205/2/4
f 205/2/4 204/2/4 206/2/4
f 207/2/4 208/2/4 209/2/4
f 209/2/4 208/2/4 210/2/4
f 211/2/4 212/2/4 213/2/4
f 213/2/4 212/2/4 214/2/4
f 215/2/4 216/2/4 217/2/4
f 217/2/4 216/2/4 218/2/4
f 218/2/4 216/2/4 220/2/4
f 219/2/4 220/2/4 221/2/4
f 220/2/4 216/2/4 222/2/4
f 221/2/4 220/2/4 222/2/4
f 223/2/4 224/2/4 225/2/4
f 225/2/4 224/2/4 226/2/4
f 227/2/4 228/2/4 229/2/4
f 229/2/4 228/2/4 230/2/4
f 231/2/4 232/2/4 233/2/4
f 233/2/4 232/2/4 234/2/4
f 239/4/5 236/4/5 235/4/5
f 240/4/5 236/4/5 239/4/5
f 241/4/5 238/4/5 237/4/5
f 242/4/5 238/4/5 241/4/5
f 245/2/5 244/2/5 243/2/5
f 246/2/5 244/2/5 245/2/5
f 247/2/5 244/2/5 246/2/5
f 248/2/5 244/2/5 247/2/5
f 249/2/5 245/2/5 243/2/5
f 250/2/5 247/2/5 246/2/5
f 251/2/5 247/2/5 250/2/5
f 252/2/5 244/2/5 248/2/5
f 253/2/5 251/2/5 250/2/5
f 253/2/5 252/2/5 251/2/5
f 253/2/5 249/2/5 243/2/5
f 253/2/5 250/2/5 249/2/5
f 254/2/5 244/2/5 252/2/5
f 254/2/5 252/2/5 253/2/5
f 259/4/5 256/4/5 255/4/5
f 260/4/5 258/4/5 257/4/5
f 261/4/5 259/4/5 255/4/5
f 262/4/5 259/4/5 261/4/5
f 263/4/5 258/4/5 260/4/5
f 264/4/5 258/4/5 263/4/5
f 265/2/5 262/2/5 261/2/5
f 266/2/5 262/2/5 265/2/5
f 267/2/5 264/2/5 263/2/5
f 268/2/5 264/2/5 267/2/5
f 273/2/5 270/2/5 269/2/5
f 273/2/5 272/2/5 271/2/5
f 273/2/5 271/2/5 270/2/5
f 274/2/5 272/2/5 273/2/5
f 277/2/5 276/2/5 275/2/5
f 278/2/5 276/2/5 277/2/5
f 279/2/5 277/2/5 275/2/5
f 280/2/5 277/2/5 279/2/5
f 281/2/5 276/2/5 278/2/5
f 282/2/5 276/2/5 281/2/5
f 283/2/5 279/2/5 275/2/5
f 284/2/5 279/2/5 283/2/5
f 285/2/5 276/2/5 282/2/5
f 286/2/5 276/2/5 285/2/5
f 287/4/6 288/4/6 291/4/6
f 291/4/6 288/4/6 292/4/6
f 289/4/6 290/4/6 293/4/6
f 293/4/6 290/4/6 294/4/6
f 295/4/6 296/4/6 299/4/6
f 297/4/6 298/4/6 300/4/6
f 295/4/6 299/4/6 301/4/6
f 301/4/6 299/4/6 302/4/6
f 300/4/6 298/4/6 303/4/6
f 303/4/6 298/4/6 304/4/6
f 301/2/6 302/2/6 305/2/6
f 305/2/6 302/2/6 306/2/6
f 303/2/6 304/2/6 307/2/6
f 307/2/6 304/2/6 308/2/6
f 309/2/6 310/2/6 313/2/6
f 313/2/6 310/2/6 314/2/6
f 311/2/6 312/2/6 315/2/6
f 315/2/6 312/2/6 316/2/6
f 317/2/6 318/2/6 319/2/6
f 319/2/6 318/2/6 320/2/6
f 320/2/6 318/2/6 321/2/6
f 321/2/6 318/2/6 322/2/6
f 317/2/6 319/2/6 323/2/6
f 320/2/6 321/2/6 324/2/6
f 324/2/6 321/2/6 325/2/6
f 322/2/6 318/2/6 326/2/6
f 324/2/6 325/2/6 327/2/6
f 325/2/6 326/2/6 327/2/6
f 317/2/6 323/2/6 327/2/6
f 323/2/6 324/2/6 327/2/6
f 326/2/6 318/2/6 328/2/6
f 327/2/6 326/2/6 328/2/6
f 329/2/6 330/2/6 331/2/6
f 331/2/6 330/2/6 332/2/6
f 333/2/6 334/2/6 335/2/6
f 335/2/6 334/2/6 336/2/6
f 337/2/6 338/2/6 339/2/6
f 339/2/6 338/2/6 340/2/6
